<?xml version="1.0" encoding="iso-8859-1"?>
<!-- Generator: Adobe Illustrator 19.0.0, SVG Export Plug-In . SVG Version: 6.00 Build 0)  -->
<svg xmlns="http://www.w3.org/2000/svg" xmlns:xlink="http://www.w3.org/1999/xlink" version="1.1" id="Layer_1" x="0px" y="0px" viewBox="0 0 512 512" style="enable-background:new 0 0 512 512;" xml:space="preserve">
<path style="fill:#4D5560;" d="M284.035,407.959h-56.07c-7.267,0-13.159-5.891-13.159-13.159v-33.757h82.387V394.8  C297.195,402.067,291.303,407.959,284.035,407.959z"/>
<path style="fill:#30373F;" d="M268.224,361.045V394.8c0,7.267-5.891,13.159-13.159,13.159h28.971  c7.267,0,13.159-5.891,13.159-13.159v-33.755H268.224z"/>
<path style="fill:#4D5560;" d="M363.777,284.431H148.224c-19.936,0-35.727-14.723-34.447-32.116l16.202-204.171  c1.647-22.375,22.885-39.787,48.53-39.787h154.983c25.646,0,46.884,17.411,48.53,39.787l16.202,204.172  C399.504,269.71,383.712,284.431,363.777,284.431z"/>
<g>
	<path style="fill:#3F4651;" d="M438.585,271.401h-24.702c-3.96,0-7.17-3.21-7.17-7.17V206.29c0-3.96,3.21-7.17,7.17-7.17h24.702   c3.96,0,7.17,3.21,7.17,7.17v57.941C445.756,268.191,442.545,271.401,438.585,271.401z"/>
	<path style="fill:#3F4651;" d="M73.416,271.401h24.702c3.96,0,7.17-3.21,7.17-7.17V206.29c0-3.96-3.21-7.17-7.17-7.17H73.416   c-3.96,0-7.17,3.21-7.17,7.17v57.941C66.245,268.191,69.456,271.401,73.416,271.401z"/>
</g>
<path style="fill:#424954;" d="M386.423,353.618L386.423,353.618c-85.724,17.951-175.121,17.951-260.846,0l0,0  c-10.774-2.256-18.366-10.639-18.366-20.277v-12.399c0-20.212,18.838-36.596,42.076-36.596h213.429  c23.238,0,42.076,16.384,42.076,36.596v12.399C404.79,342.979,397.197,351.363,386.423,353.618z"/>
<g>
	<path style="fill:#30373F;" d="M73.416,271.401h24.702c3.96,0,7.17-3.21,7.17-7.17v-21.403H66.245v21.403   C66.245,268.191,69.456,271.401,73.416,271.401z"/>
	<path style="fill:#30373F;" d="M406.713,242.828v21.403c0,3.96,3.21,7.17,7.17,7.17h24.702c3.96,0,7.17-3.21,7.17-7.17v-21.403   L406.713,242.828L406.713,242.828z"/>
</g>
<g>
	<path style="fill:#3B4451;" d="M362.715,284.346h-28.971c23.238,0,42.076,16.384,42.076,36.596v12.399   c0,9.638-7.593,18.021-18.366,20.277l0,0c-38.134,7.985-76.995,12.408-115.938,13.29c48.597,1.099,97.318-3.325,144.908-13.29l0,0   c10.774-2.256,18.366-10.639,18.366-20.277v-12.399C404.79,300.73,385.952,284.346,362.715,284.346z"/>
	<path style="fill:#3B4451;" d="M398.225,252.316L382.022,48.144c-1.647-22.375-22.885-39.787-48.53-39.787h-29.756   c25.646,0,46.884,17.411,48.53,39.787l16.202,204.172c1.279,17.394-14.511,32.116-34.447,32.116h29.756   C383.712,284.431,399.504,269.71,398.225,252.316z"/>
</g>
<path style="fill:#232323;" d="M438.585,190.761h-24.702c-4.685,0-8.884,2.095-11.733,5.387l-4.136-52.124  c-0.364-4.601-4.351-8.032-8.992-7.669c-4.601,0.365-8.034,4.391-7.669,8.992l8.537,107.582c0.388,5.263-1.542,10.466-5.431,14.651  c-4.737,5.099-11.726,8.14-19.337,8.462c-0.798-0.033-1.6-0.055-2.408-0.055H149.287c-0.808,0-1.609,0.021-2.408,0.055  c-7.61-0.322-14.599-3.363-19.337-8.462c-3.889-4.185-5.819-9.39-5.434-14.603l16.206-204.22  c1.322-17.969,18.978-32.043,40.196-32.043h154.982c21.218,0,38.874,14.074,40.199,32.091l4.865,61.301  c0.365,4.601,4.378,8.041,8.992,7.669c4.601-0.365,8.035-4.391,7.669-8.992l-4.862-61.253C388.395,20.878,363.416,0,333.492,0  H178.509c-29.925,0-54.903,20.878-56.861,47.482L109.851,196.15c-2.849-3.293-7.048-5.389-11.734-5.389H73.416  c-8.562,0-15.527,6.965-15.527,15.528v57.941c0,8.562,6.965,15.527,15.527,15.527h3.995v21.408c0,13.53,9.068,24.977,21.444,28.6  v3.575c0,13.672,10.285,25.373,25.011,28.457c4.23,0.886,8.54,1.742,12.81,2.546c4.535,0.856,8.905-2.132,9.759-6.668  s-2.133-8.905-6.668-9.758c-4.158-0.782-8.356-1.617-12.474-2.479c-6.902-1.445-11.723-6.419-11.723-12.098v-12.399  c0-14.978,13.997-27.263,31.612-28.177c0.349,0.008,0.695,0.026,1.045,0.026h215.552c0.35,0,0.696-0.018,1.045-0.026  c17.613,0.915,31.612,13.2,31.612,28.177v12.399c0,5.678-4.82,10.652-11.723,12.098c-28.899,6.052-58.075,10.036-87.381,11.964  c-0.224-0.003-0.447-0.004-0.672,0.011c-13.47,0.868-27.149,1.309-40.656,1.309c-13.507,0-27.186-0.441-40.656-1.309  c-0.085-0.006-0.169-0.001-0.254-0.004c-13.627-0.893-27.255-2.223-40.867-4.004c-4.573-0.599-8.771,2.626-9.37,7.203  c-0.598,4.576,2.625,8.771,7.203,9.37c11.458,1.499,22.925,2.674,34.394,3.56V394.8c0,11.863,9.652,21.516,21.516,21.516h19.271  v20.881l-144.236,32.848c-3.803,0.866-6.502,4.249-6.502,8.149v25.449c0,4.615,3.741,8.357,8.357,8.357  c4.616,0,8.357-3.742,8.357-8.357v-18.781l134.021-30.522v24.235c0,4.615,3.741,8.357,8.357,8.357c4.616,0,8.357-3.742,8.357-8.357  v-24.249l134.835,30.543v18.773c0,4.615,3.741,8.357,8.357,8.357c4.616,0,8.357-3.742,8.357-8.357v-25.449  c0-3.904-2.703-7.288-6.511-8.15L263.95,437.191v-20.873h20.085c11.863,0,21.516-9.653,21.516-21.516V373.58  c27.69-2.132,55.258-6.058,82.584-11.781c14.726-3.083,25.011-14.785,25.011-28.457v-3.575c12.376-3.622,21.444-15.069,21.444-28.6  v-21.408h3.995c8.562,0,15.527-6.965,15.527-15.527v-57.941C454.113,197.728,447.147,190.761,438.585,190.761z M288.838,394.8  c0,2.647-2.155,4.802-4.802,4.802h-56.07c-2.647,0-4.802-2.155-4.802-4.802v-20.181c11.021,0.565,22.041,0.858,33.053,0.858  c10.884,0,21.76-0.28,32.62-0.831V394.8H288.838z M74.602,207.475h22.329v55.569H74.602V207.475z M99.862,311.987  c-3.46-2.358-5.737-6.328-5.737-10.821v-21.408h3.994c5.253,0,9.896-2.629,12.708-6.632c1.28,2.046,2.77,3.999,4.473,5.832  c1.677,1.804,3.522,3.441,5.494,4.918C110.196,290.369,102.507,300.37,99.862,311.987z M417.877,301.167  c0,4.494-2.278,8.464-5.737,10.821c-2.645-11.617-10.335-21.618-20.931-28.111c1.973-1.478,3.819-3.114,5.494-4.918  c1.703-1.833,3.193-3.786,4.473-5.832c2.811,4.004,7.456,6.632,12.708,6.632h3.994L417.877,301.167L417.877,301.167z   M437.399,263.044H415.07v-55.569h22.329V263.044z"/>
<g>
</g>
<g>
</g>
<g>
</g>
<g>
</g>
<g>
</g>
<g>
</g>
<g>
</g>
<g>
</g>
<g>
</g>
<g>
</g>
<g>
</g>
<g>
</g>
<g>
</g>
<g>
</g>
<g>
</g>
</svg>
